# xmcd
#
# Track frame offsets:
#	150
#	12164
#	26284
#	38961
#	56777
#	69805
#	83053
#	91870
#	101249
#	122638
#	136304
#	151618
#
# Disc length: 2291 seconds
#
# Revision: 1
# Processed by: cddbd v1.5.2PL0 Copyright (c) Steve Scherf et al.
# Submitted via: audiograbber 1.83.01
#
DISCID=8908f10c
DTITLE=Rewolfinger - Redemption, Daily 10am
DYEAR=2007
DGENRE=Country
TTITLE0=Driving Nails In My Coffin
TTITLE1=Free Born Man
TTITLE2=Rambling Man
TTITLE3=Everybody Loves You When You Are Dead
TTITLE4=Wayfaring Stranger
TTITLE5=Sick, Sober, and Sorry
TTITLE6=Freight Train
TTITLE7=Wild Bill Jones
TTITLE8=The Darkest Hour Is Just Before Dawn
TTITLE9=Knoxville Girl
TTITLE10=Alone and Forsaken
TTITLE11=Oh Death
EXTD=
EXTT0=
EXTT1=
EXTT2=
EXTT3=
EXTT4=
EXTT5=
EXTT6=
EXTT7=
EXTT8=
EXTT9=
EXTT10=
EXTT11=
PLAYORDER=
